<svg width="18" height="18" viewBox="0 0 18 18" fill="none" xmlns="http://www.w3.org/2000/svg">
<path d="M10.9887 1.27094C14.1595 1.27094 16.7295 3.84094 16.7295 7.01177M10.9887 4.22094C12.5295 4.22094 13.7795 5.47011 13.7795 7.01177M7.00452 10.9709C7.75452 11.6901 8.63369 12.2751 9.60535 12.6901L10.0379 12.8743L11.367 11.5243C11.697 11.1893 12.1745 11.0443 12.6354 11.1409L15.8554 11.8151C16.4004 11.9309 16.7895 12.4118 16.7895 12.9684V15.2868C16.7895 16.1159 16.1179 16.7876 15.2887 16.7876H14.5762C11.2979 16.7876 8.06285 15.7018 5.61618 13.5201C5.41452 13.3409 5.21868 13.1551 5.02785 12.9651L5.05868 12.9959C4.86785 12.8051 4.68285 12.6093 4.50368 12.4076C2.32118 9.96177 1.23535 6.72677 1.23535 3.44844V2.73594C1.23535 1.90677 1.90702 1.23511 2.73618 1.23511H5.05452C5.61118 1.23511 6.09202 1.62427 6.20785 2.16927L6.88285 5.38927C6.97868 5.84927 6.83452 6.32761 6.49952 6.65761L5.14952 7.98677L5.33368 8.41927C5.74868 9.39011 6.28452 10.2209 7.00452 10.9709Z" stroke="black" stroke-width="1.5" stroke-miterlimit="10" stroke-linecap="round" stroke-linejoin="round"/>
</svg>
